<svg xmlns="http://www.w3.org/2000/svg" viewBox="0 0 419.43 87.6"><g fill="#9a1027"><path d="M49.9 19.6l-1.1-1-1.1 1c-3.9 3.5-6.2 8.4-6.2 13.6s2.3 10.1 6.2 13.6l1.1 1 1.1-1c3.9-3.5 6.2-8.4 6.2-13.6 0-5.2-2.2-10.1-6.2-13.6zm-1.1 23.7c-2.6-2.8-4-6.4-4-10.1s1.4-7.3 4-10.1c2.6 2.8 4 6.4 4 10.1s-1.4 7.3-4 10.1zm11.9 9.4c2.7 0 5.2-.7 7.5-2.1 4.2-2.5 7-7.1 7.9-12.5l.2-1.2-1.2-.5c-2.1-1-4.4-1.4-6.6-1.4-2.7 0-5.2.7-7.5 2.1-4.2 2.5-7 7.1-7.9 12.5l-.2 1.2 1.2.5c2.2.9 4.4 1.4 6.6 1.4zm2.1-12.9c1.8-1.1 3.8-1.6 5.8-1.6 1.3 0 2.7.2 4 .7-.9 3.9-3.1 7.2-6.1 9-1.8 1.1-3.8 1.6-5.8 1.6-1.3 0-2.7-.2-4-.7.9-4 3.1-7.2 6.1-9zM58 32.7l.4 1.5 1.5-.3c5.3-1.1 10-4.6 12.9-9.6s3.7-11.1 2.3-16.7l-.4-1.5-1.5.3c-5.3 1.1-10 4.6-12.9 9.6-2.8 5-3.6 11.1-2.3 16.7zm5.2-15.1c2.1-3.7 5.4-6.4 9.1-7.6.7 4.4-.1 8.9-2.3 12.7-2.1 3.7-5.4 6.4-9.1 7.6-.7-4.4.1-8.9 2.3-12.7zm17 32.6c-1-.2-1.9-.3-2.9-.3-3.3 0-6.6 1.3-9.3 3.7l-.9.8.5 1.1c2 4.4 5.6 7.5 9.8 8.5 1 .2 1.9.3 2.9.3 3.3 0 6.6-1.3 9.3-3.7l.9-.8-.5-1.1c-2.1-4.5-5.6-7.6-9.8-8.5zm.1 10.8c-.7 0-1.4-.1-2.1-.3-2.8-.7-5.3-2.7-7-5.6 1.9-1.4 4-2.1 6.1-2.1.7 0 1.4.1 2.1.3 2.8.7 5.3 2.7 7 5.6-1.9 1.4-4 2.1-6.1 2.1zm16.5-22.7c-2.4-2.1-5.3-3.2-8.2-3.2-.9 0-1.8.1-2.8.3-3.7.9-6.9 3.7-8.6 7.7l-.5 1.1.9.8c2.4 2.1 5.3 3.2 8.2 3.2.9 0 1.8-.1 2.8-.3 3.7-.9 6.9-3.7 8.6-7.7l.5-1.1-.9-.8zm-9 6.4c-.6.2-1.3.2-2 .2-1.7 0-3.5-.6-5-1.6 1.4-2.4 3.5-4.1 5.8-4.7 2.4-.6 4.8-.1 7 1.4-1.4 2.4-3.5 4.1-5.8 4.7zM53.5 19.5l1 .9 1.1-.8c2.9-2.3 4.6-5.7 4.7-9.2.1-3.5-1.5-6.9-4.3-9.4l-1-.9-1.1.8c-2.9 2.3-4.6 5.7-4.7 9.2-.1 3.5 1.5 7 4.3 9.4zm1.4-15c1.4 1.7 2.2 3.7 2.2 5.8s-.9 4.1-2.4 5.7c-1.4-1.7-2.2-3.7-2.2-5.8s.8-4.1 2.4-5.7zm18 27.6l1.2.4c1.3.4 2.6.6 3.9.6 2.7 0 5.2-.9 7.3-2.5 3.1-2.4 5-6.2 5.2-10.6l.1-1.3-1.2-.4c-1.3-.4-2.6-.6-3.9-.6-2.7 0-5.2.9-7.3 2.5-3.1 2.4-5 6.2-5.2 10.6l-.1 1.3zm7.3-9.3c1.9-1.5 4.4-2.1 6.8-1.7-.5 2.9-1.8 5.3-3.8 6.9-1.5 1.2-3.3 1.8-5.2 1.8-.5 0-1.1 0-1.6-.1.5-2.9 1.8-5.3 3.8-6.9zM56.5 55c-.6 0-1.2 0-1.8.1l-1.3.1-.1 1.3c-.6 5.5 1 10.7 4.3 14.4 3 3.3 7.1 5.1 11.5 5.1.6 0 1.2 0 1.8-.1l1.3-.1.1-1.3c.6-5.5-1-10.7-4.3-14.4-2.9-3.2-7-5.1-11.5-5.1zm12.7 17.9q-.1 0 0 0-.1 0 0 0c-3.6 0-6.8-1.4-9.2-4-2.4-2.7-3.7-6.5-3.6-10.5h.1c3.5 0 6.8 1.4 9.1 4 2.4 2.6 3.7 6.4 3.6 10.5zM36.6 37c-2.3-1.4-4.8-2.1-7.5-2.1-2.2 0-4.4.5-6.6 1.4l-1.2.5.2 1.2c.9 5.5 3.8 10 7.9 12.5 2.3 1.4 4.8 2.1 7.5 2.1 2.2 0 4.4-.5 6.6-1.4l1.2-.5-.2-1.2c-.9-5.4-3.8-10-7.9-12.5zm.4 12.5c-2.1 0-4.1-.6-5.8-1.6-3-1.8-5.2-5.1-6.1-9 1.3-.5 2.7-.7 4-.7 2.1 0 4.1.6 5.8 1.6 3 1.8 5.2 5.1 6.1 9-1.3.4-2.7.7-4 .7zm.7-15.6l1.5.3.4-1.5c1.4-5.6.5-11.7-2.3-16.7-2.9-5-7.6-8.5-12.9-9.6l-1.5-.3-.4 1.5c-1.4 5.6-.5 11.7 2.3 16.7 2.9 5 7.6 8.5 12.9 9.6zM25.3 10c3.7 1.2 7 3.9 9.1 7.6 2.2 3.8 3 8.3 2.3 12.7-3.7-1.2-7-3.9-9.1-7.6-2.1-3.8-2.9-8.3-2.3-12.7zM30 55.4l.5-1.1-.9-.8c-2.7-2.4-6-3.7-9.3-3.7-1 0-1.9.1-2.9.3-4.2 1-7.7 4.1-9.8 8.5l-.5 1.1.9.8c2.7 2.4 6 3.7 9.3 3.7 1 0 1.9-.1 2.9-.3 4.3-.9 7.8-4 9.8-8.5zm-10.5 5.4c-.7.2-1.4.3-2.1.3-2.1 0-4.2-.7-6.1-2.1 1.6-2.9 4.1-4.9 7-5.6.7-.2 1.4-.3 2.1-.3 2.1 0 4.2.7 6.1 2.1-1.7 2.9-4.1 4.9-7 5.6zm-7.6-12.6c2.9 0 5.7-1.1 8.2-3.2l.9-.8-.5-1.1c-1.8-4-4.9-6.8-8.6-7.7-.9-.2-1.8-.3-2.8-.3-2.9 0-5.7 1.1-8.2 3.2l-.9.8.5 1.1c1.8 4 4.9 6.8 8.6 7.7.9.2 1.8.3 2.8.3zM4.1 40c2.2-1.5 4.6-2 7-1.4s4.5 2.3 5.8 4.7c-2.2 1.5-4.6 2-7 1.4S5.4 42.4 4.1 40zm38-20.5l1.1.8 1-.9c2.8-2.4 4.4-5.8 4.3-9.4-.1-3.5-1.8-6.9-4.7-9.2L42.7 0l-1 .9c-2.8 2.4-4.4 5.8-4.3 9.4.1 3.6 1.8 6.9 4.7 9.2zm.7-15c1.5 1.6 2.3 3.6 2.4 5.7 0 2.1-.7 4.2-2.2 5.8-1.5-1.6-2.3-3.6-2.4-5.7 0-2.2.8-4.2 2.2-5.8zM12.4 30.6c2.1 1.6 4.6 2.5 7.3 2.5 1.3 0 2.6-.2 3.9-.6l1.2-.4-.1-1.3c-.3-4.4-2.2-8.2-5.2-10.6-2.1-1.6-4.6-2.5-7.3-2.5-1.3 0-2.6.2-3.9.6l-1.2.4.1 1.3c.2 4.4 2.2 8.2 5.2 10.6zm5-7.8c2 1.6 3.4 4 3.8 6.9-2.5.4-4.9-.2-6.8-1.7-2-1.6-3.4-4-3.8-6.9 2.5-.4 4.9.2 6.8 1.7zm26.9 32.5l-1.3-.1c-.6-.1-1.2-.1-1.8-.1-4.5 0-8.6 1.8-11.5 5.1-3.3 3.7-4.9 8.9-4.3 14.4l.1 1.3 1.3.1c.6.1 1.2.1 1.8.1 4.5 0 8.6-1.8 11.5-5.1 3.3-3.7 4.9-8.9 4.3-14.4l-.1-1.3zm-6.6 13.5c-2.3 2.6-5.6 4-9.1 4h-.1c-.1-4 1.2-7.8 3.6-10.5 2.3-2.6 5.6-4 9.1-4h.1c.1 4.1-1.2 7.8-3.6 10.5zm9.5-14.9h3.3V86h-3.3zm11.2 30.4c-1.6 0-2.9-1.3-2.9-2.9v-10h-3.3v10c0 3.4 2.8 6.2 6.2 6.2h11.9v-3.3H58.4zm-16.3-2.9c0 1.6-1.3 2.9-2.9 2.9H27.3v3.3h11.9c3.4 0 6.2-2.8 6.2-6.2v-10h-3.3v10z"/><g opacity=".75"><ellipse cx="48.8" cy="36.9" rx="4.4" ry="10" opacity=".5"/><ellipse cx="63" cy="47.31" rx="8.6" ry="4.5" transform="rotate(-30.56 63.01 47.325)" opacity=".5"/><path d="M62.4 21.7c-2.6 3.5-3.5 7.8-3 11.9 3.7-.4 7.3-2.4 9.9-5.9s3.5-7.8 3-11.9c-3.8.4-7.4 2.4-9.9 5.9z" opacity=".5"/><ellipse cx="75.07" cy="57.98" rx="3.8" ry="6.9" transform="rotate(-75.77 75.07 57.975)" opacity=".5"/><path d="M83.9 40.8c-2.4.6-4.2 2.4-5.3 4.8 1.9 1.6 4.3 2.4 6.6 1.8 2.4-.6 4.2-2.4 5.3-4.8-1.9-1.6-4.3-2.4-6.6-1.8zM54.9 8c-2 1.5-3.2 3.7-3.3 6.1 0 2.5 1.1 4.7 3 6.3 2-1.5 3.2-3.7 3.3-6.1 0-2.5-1.1-4.7-3-6.3zm23.7 18c-2 1.6-3.1 4.1-3.3 6.8 2.4.7 4.9.4 6.9-1.2s3.1-4.1 3.3-6.8c-2.3-.7-4.9-.4-6.9 1.2z" opacity=".5"/><ellipse cx="59.32" cy="64.08" rx="4.4" ry="8.9" transform="rotate(-40.18 59.312 64.084)" opacity=".5"/><ellipse cx="34.6" cy="47.35" rx="4.5" ry="8.6" transform="rotate(-59.44 34.603 47.346)" opacity=".5"/><ellipse cx="31.91" cy="24.71" rx="4.5" ry="11" transform="rotate(-35.06 31.906 24.701)" opacity=".5"/><ellipse cx="22.6" cy="58" rx="6.9" ry="3.8" transform="rotate(-14.23 22.617 58.027)" opacity=".5"/><path d="M13.8 40.8c2.4.6 4.2 2.4 5.3 4.8-1.9 1.6-4.3 2.4-6.6 1.8-2.4-.6-4.2-2.4-5.3-4.8 1.9-1.6 4.3-2.4 6.6-1.8zM42.8 8c2 1.5 3.2 3.7 3.3 6.1 0 2.5-1.1 4.7-3 6.3-2-1.5-3.2-3.7-3.3-6.1-.1-2.5 1.1-4.7 3-6.3zM19.1 26c2 1.6 3.1 4.1 3.3 6.8-2.4.7-4.9.4-6.9-1.2s-3.1-4.1-3.3-6.8c2.3-.7 4.8-.4 6.9 1.2z" opacity=".5"/><ellipse cx="38.37" cy="64.1" rx="8.9" ry="4.4" transform="rotate(-49.82 38.371 64.1)" opacity=".5"/></g></g><path d="M114.4 67.65V24.99h14.94c5.18 0 9.1.99 11.78 2.97 2.68 1.98 4.01 4.89 4.01 8.72 0 2.09-.54 3.93-1.61 5.52-1.07 1.59-2.57 2.76-4.48 3.5 2.19.55 3.91 1.65 5.17 3.31 1.26 1.66 1.89 3.69 1.89 6.09 0 4.1-1.31 7.21-3.93 9.32-2.62 2.11-6.35 3.18-11.19 3.22H114.4zm8.79-24.78h6.5c4.43-.08 6.65-1.85 6.65-5.3 0-1.93-.56-3.33-1.68-4.17-1.12-.85-2.9-1.27-5.32-1.27h-6.15v10.75zm0 6.21v11.51h7.53c2.07 0 3.69-.49 4.85-1.48 1.16-.99 1.74-2.35 1.74-4.09 0-3.91-2.02-5.89-6.06-5.95h-8.06zm64.18-1.79c0 4.2-.74 7.88-2.23 11.04-1.48 3.16-3.61 5.61-6.37 7.32-2.76 1.72-5.93 2.58-9.51 2.58s-6.69-.85-9.46-2.55c-2.77-1.7-4.92-4.13-6.45-7.28-1.52-3.15-2.3-6.78-2.31-10.88v-2.11c0-4.2.76-7.9 2.27-11.09 1.51-3.19 3.65-5.64 6.42-7.35 2.76-1.71 5.92-2.56 9.48-2.56s6.71.85 9.48 2.56c2.76 1.71 4.9 4.16 6.42 7.35 1.51 3.19 2.27 6.88 2.27 11.06v1.9zm-8.91-1.93c0-4.47-.8-7.87-2.4-10.19-1.6-2.32-3.89-3.49-6.86-3.49s-5.23 1.15-6.83 3.44c-1.6 2.3-2.41 5.66-2.43 10.09v2.08c0 4.36.8 7.73 2.4 10.14 1.6 2.4 3.91 3.6 6.91 3.6s5.21-1.16 6.8-3.47 2.38-5.69 2.4-10.12v-2.08zm49.98 1.93c0 4.2-.74 7.88-2.23 11.04-1.48 3.16-3.61 5.61-6.37 7.32-2.76 1.72-5.93 2.58-9.51 2.58s-6.69-.85-9.46-2.55c-2.77-1.7-4.92-4.13-6.45-7.28-1.52-3.15-2.3-6.78-2.31-10.88v-2.11c0-4.2.76-7.9 2.27-11.09 1.51-3.19 3.65-5.64 6.42-7.35 2.76-1.71 5.92-2.56 9.48-2.56s6.71.85 9.48 2.56c2.76 1.71 4.9 4.16 6.42 7.35 1.51 3.19 2.27 6.88 2.27 11.06v1.9zm-8.91-1.93c0-4.47-.8-7.87-2.4-10.19-1.6-2.32-3.89-3.49-6.86-3.49s-5.23 1.15-6.83 3.44c-1.6 2.3-2.41 5.66-2.43 10.09v2.08c0 4.36.8 7.73 2.4 10.14 1.6 2.4 3.91 3.6 6.91 3.6s5.21-1.16 6.8-3.47 2.38-5.69 2.4-10.12v-2.08zm37.06 11.1c0-1.66-.59-2.93-1.76-3.82-1.17-.89-3.28-1.83-6.33-2.81-3.05-.99-5.46-1.96-7.24-2.92-4.84-2.62-7.27-6.14-7.27-10.58 0-2.3.65-4.36 1.95-6.17 1.3-1.81 3.16-3.22 5.6-4.23 2.43-1.02 5.16-1.52 8.19-1.52s5.76.55 8.14 1.66c2.38 1.1 4.23 2.66 5.55 4.67 1.32 2.01 1.98 4.3 1.98 6.86h-8.79c0-1.95-.62-3.47-1.85-4.56s-2.96-1.63-5.19-1.63-3.82.45-5.01 1.36c-1.19.91-1.79 2.1-1.79 3.59 0 1.39.7 2.55 2.09 3.49 1.4.94 3.45 1.82 6.17 2.64 5 1.5 8.64 3.37 10.93 5.6s3.43 5 3.43 8.32c0 3.69-1.4 6.59-4.19 8.69-2.79 2.1-6.55 3.15-11.28 3.15-3.28 0-6.27-.6-8.96-1.8s-4.75-2.85-6.17-4.94c-1.42-2.09-2.12-4.51-2.12-7.27h8.82c0 4.71 2.81 7.06 8.44 7.06 2.09 0 3.72-.42 4.89-1.27s1.76-2.04 1.76-3.56zm46.51-24.35h-13.07v35.54h-8.79V32.11h-12.89v-7.12h34.75v7.12zm25.22 26.75h-15.41l-2.93 8.79h-9.35l15.88-42.66h8.14l15.97 42.66h-9.35l-2.96-8.79zm-13.04-7.12h10.66l-5.36-15.97-5.3 15.97zm44.76.29h-7v15.62h-8.79V24.99h15.85c5.04 0 8.93 1.12 11.66 3.37 2.73 2.25 4.1 5.42 4.1 9.52 0 2.91-.63 5.34-1.89 7.28-1.26 1.94-3.17 3.49-5.73 4.64l9.23 17.43v.41h-9.43l-8-15.62zm-7-7.12h7.09c2.21 0 3.92-.56 5.13-1.68 1.21-1.12 1.82-2.67 1.82-4.64s-.57-3.59-1.71-4.75c-1.14-1.15-2.9-1.73-5.26-1.73h-7.06v12.8zm64.18 2.38c0 4.2-.74 7.88-2.23 11.04s-3.61 5.61-6.37 7.32c-2.76 1.72-5.93 2.58-9.51 2.58s-6.69-.85-9.46-2.55-4.92-4.13-6.45-7.28c-1.52-3.15-2.29-6.78-2.31-10.88v-2.11c0-4.2.76-7.9 2.27-11.09s3.65-5.64 6.42-7.35c2.76-1.71 5.92-2.56 9.48-2.56s6.71.85 9.48 2.56c2.76 1.71 4.9 4.16 6.42 7.35s2.27 6.88 2.27 11.06v1.9zm-8.91-1.93c0-4.47-.8-7.87-2.4-10.19-1.6-2.32-3.89-3.49-6.86-3.49s-5.22 1.15-6.83 3.44c-1.6 2.3-2.41 5.66-2.43 10.09v2.08c0 4.36.8 7.73 2.4 10.14s3.91 3.6 6.91 3.6 5.21-1.16 6.8-3.47 2.38-5.69 2.4-10.12v-2.08z" fill="#9a1027"/></svg>